<?xml version="1.0" encoding="UTF-8" standalone="no"?>
<!-- Created with Inkscape (http://www.inkscape.org/) -->
<svg xmlns:dc="http://purl.org/dc/elements/1.1/" xmlns:cc="http://creativecommons.org/ns#" xmlns:rdf="http://www.w3.org/1999/02/22-rdf-syntax-ns#" xmlns:svg="http://www.w3.org/2000/svg" xmlns="http://www.w3.org/2000/svg" xmlns:sodipodi="http://sodipodi.sourceforge.net/DTD/sodipodi-0.dtd" xmlns:inkscape="http://www.inkscape.org/namespaces/inkscape" width="83.404739mm" height="24.103575mm" viewBox="0 0 295.52861 85.406367" id="svg4130" version="1.1" inkscape:version="0.91 r13725" sodipodi:docname="AccorHotels Logo.svg">
  <defs id="defs4132">
    <clipPath clipPathUnits="userSpaceOnUse" id="clipPath4090">
      <path d="m 164.36,725.331 266.839,0 0,97.992 -266.839,0 0,-97.992 z" id="path4092" inkscape:connector-curvature="0"/>
    </clipPath>
  </defs>
  <sodipodi:namedview id="base" pagecolor="#ffffff" bordercolor="#666666" borderopacity="1.0" inkscape:pageopacity="0.0" inkscape:pageshadow="2" inkscape:zoom="3.959798" inkscape:cx="158.08932" inkscape:cy="25.961972" inkscape:document-units="px" inkscape:current-layer="layer1" showgrid="false" fit-margin-top="1" fit-margin-left="1" fit-margin-right="1" fit-margin-bottom="1" inkscape:window-width="1920" inkscape:window-height="1017" inkscape:window-x="-8" inkscape:window-y="-8" inkscape:window-maximized="1"/>
  <metadata id="metadata4135">
    <rdf:RDF>
      <cc:Work rdf:about="">
        <dc:format>image/svg+xml</dc:format>
        <dc:type rdf:resource="http://purl.org/dc/dcmitype/StillImage"/>
        <dc:title/>
      </cc:Work>
    </rdf:RDF>
  </metadata>
  <g inkscape:label="Calque 1" inkscape:groupmode="layer" id="layer1" transform="translate(-52.235698,-129.65899)">
    <g transform="matrix(1.25,0,0,-1.25,-170.97387,1139.5403)" id="g4086">
      <g id="g4088" clip-path="url(#clipPath4090)">
        <g id="g4094" transform="translate(201.9693,759.4617)">
          <path d="m 0,0 -8.316,19.542 -3.936,0 L -20.567,0 l 4.351,0 1.774,4.352 8.205,0 L -4.463,0 0,0 Z m -7.762,8.121 -5.155,0 2.578,6.293 2.577,-6.293 z M 19.619,3.132 16.903,5.876 C 15.379,4.49 14.02,3.604 11.803,3.604 8.477,3.604 6.176,6.376 6.176,9.702 l 0,0.055 c 0,3.327 2.356,6.043 5.627,6.043 1.94,0 3.465,-0.832 4.962,-2.191 l 2.716,3.133 c -1.802,1.774 -3.991,2.993 -7.65,2.993 -5.96,0 -10.117,-4.517 -10.117,-10.033 l 0,-0.056 c 0,-5.571 4.241,-9.978 9.951,-9.978 3.742,0 5.959,1.33 7.954,3.464 m 20.734,0 -2.717,2.744 c -1.524,-1.386 -2.883,-2.272 -5.1,-2.272 -3.326,0 -5.627,2.772 -5.627,6.098 l 0,0.055 c 0,3.327 2.356,6.043 5.627,6.043 1.94,0 3.465,-0.832 4.962,-2.191 l 2.716,3.133 c -1.802,1.774 -3.992,2.993 -7.65,2.993 -5.96,0 -10.118,-4.517 -10.118,-10.033 l 0,-0.056 c 0,-5.571 4.241,-9.978 9.951,-9.978 3.742,0 5.96,1.33 7.956,3.464 m 23.449,6.57 0,0.055 c 0,5.516 -4.296,9.978 -10.284,9.978 -5.987,0 -10.339,-4.517 -10.339,-10.033 l 0,-0.056 c 0,-5.515 4.297,-9.978 10.284,-9.978 5.987,0 10.339,4.517 10.339,10.034 M 59.34,9.646 c 0,-3.326 -2.385,-6.042 -5.822,-6.042 -3.437,0 -5.876,2.772 -5.876,6.098 l 0,0.055 c 0,3.327 2.383,6.043 5.821,6.043 3.437,0 5.877,-2.772 5.877,-6.098 l 0,-0.056 z M 85.2,0 80.461,6.93 c 2.467,0.915 4.157,2.883 4.157,6.015 l 0,0.056 c 0,3.991 -2.744,6.402 -7.317,6.402 l -8.87,0 0,-19.403 4.268,0 0,6.209 3.355,0 L 80.211,0 85.2,0 Z m -4.906,12.723 c 0,-1.635 -1.192,-2.745 -3.271,-2.745 l -4.324,0 0,5.572 4.241,0 c 2.079,0 3.354,-0.942 3.354,-2.772 l 0,-0.055 z" style="fill:#0e2537;fill-opacity:1;fill-rule:nonzero;stroke:none" id="path4096" inkscape:connector-curvature="0"/>
        </g>
        <g id="g4098" transform="translate(325.7458,747.4576)">
          <path d="m 0,0 c -0.335,0.652 -0.95,1.191 -1.899,1.191 -1.005,0 -1.544,-0.558 -1.934,-1.135 l 0,1.006 -0.894,0 0,-5.956 0.894,0 0,3.387 c 0,1.098 0.707,1.898 1.656,1.898 0.949,0 1.527,-0.669 1.527,-1.787 l 0,-3.498 0.874,0 0,3.425 c 0,1.172 0.763,1.86 1.656,1.86 0.968,0 1.525,-0.669 1.525,-1.824 l 0,-3.461 0.874,0 0,3.686 C 4.279,0.261 3.461,1.191 2.103,1.191 1.06,1.191 0.409,0.652 0,0 m -7.519,-1.935 c 0,-1.285 -0.893,-2.307 -2.196,-2.307 -1.227,0 -2.177,1.041 -2.177,2.326 0,1.302 0.894,2.326 2.158,2.326 1.265,0 2.215,-1.043 2.215,-2.345 m 0.912,0.019 c 0,1.693 -1.302,3.107 -3.108,3.107 -1.785,0 -3.106,-1.433 -3.106,-3.126 0,-1.693 1.321,-3.089 3.087,-3.089 1.806,0 3.127,1.432 3.127,3.108 m -7.965,-1.434 c -0.464,-0.502 -1.061,-0.892 -1.824,-0.892 -1.246,0 -2.195,1.022 -2.195,2.326 0,1.302 0.929,2.326 2.14,2.326 0.801,0 1.34,-0.41 1.804,-0.912 l 0.596,0.632 c -0.558,0.577 -1.265,1.061 -2.381,1.061 -1.751,0 -3.053,-1.433 -3.053,-3.126 0,-1.674 1.302,-3.089 3.053,-3.089 1.116,0 1.823,0.483 2.418,1.154 l -0.558,0.52 z m -24.398,-0.186 -2.308,6.7 -0.986,0 2.866,-8.114 0.763,0 2.214,6.532 2.215,-6.532 0.763,0 2.884,8.114 -0.967,0 -2.308,-6.7 -2.177,6.719 -0.763,0 -2.196,-6.719 z m -8.914,7.035 -0.894,0 0,-7.072 c 0,-1.265 0.689,-1.47 1.285,-1.47 0.26,0 0.483,0.057 0.688,0.113 l -0.111,0.761 c -0.54,-0.167 -0.968,-0.111 -0.968,0.56 l 0,7.108 z m -7.537,-5.081 c 0.13,1.135 0.893,2.029 1.935,2.029 1.191,0 1.805,-0.949 1.898,-2.029 l -3.833,0 z m -7.092,0 c 0.113,1.135 0.894,2.029 1.936,2.029 1.191,0 1.806,-0.949 1.899,-2.029 l -3.835,0 z m 4.71,-0.669 c 0.018,0.13 0.018,0.222 0.018,0.279 0,1.749 -1.024,3.163 -2.773,3.163 -1.637,0 -2.848,-1.394 -2.848,-3.107 0,-1.862 1.34,-3.108 2.96,-3.108 1.135,0 1.861,0.447 2.438,1.116 l -0.54,0.485 c -0.465,-0.503 -1.061,-0.838 -1.861,-0.838 -1.061,0 -1.972,0.744 -2.104,2.01 l 4.71,0 z m -6.663,5.415 -5.23,0 0,-8.058 0.912,0 0,3.498 3.797,0 0,0.857 -3.797,0 0,2.867 4.318,0 0,0.836 z m 13.753,-5.415 c 0.019,0.13 0.019,0.222 0.019,0.279 0,1.749 -1.024,3.163 -2.774,3.163 -1.637,0 -2.847,-1.394 -2.847,-3.107 0,-1.862 1.341,-3.108 2.96,-3.108 1.135,0 1.861,0.447 2.437,1.116 l -0.539,0.485 c -0.466,-0.503 -1.061,-0.838 -1.862,-0.838 -1.06,0 -1.972,0.744 -2.102,2.01 l 4.708,0 z m 21.718,0.669 c 0.13,1.135 0.893,2.029 1.935,2.029 1.191,0 1.805,-0.949 1.899,-2.029 l -3.834,0 z m 4.709,-0.669 c 0.018,0.13 0.018,0.222 0.018,0.279 0,1.749 -1.024,3.163 -2.772,3.163 -1.638,0 -2.848,-1.394 -2.848,-3.107 0,-1.862 1.34,-3.108 2.958,-3.108 1.136,0 1.863,0.447 2.438,1.116 l -0.539,0.485 c -0.466,-0.503 -1.06,-0.838 -1.86,-0.838 -1.061,0 -1.974,0.744 -2.104,2.01 l 4.709,0 z m 2.811,5.75 -0.894,0 0,-7.072 c 0,-1.265 0.688,-1.47 1.283,-1.47 0.26,0 0.485,0.057 0.688,0.113 l -0.111,0.761 c -0.539,-0.167 -0.966,-0.111 -0.966,0.56 l 0,7.108 z m 28.51,-5.081 c 0.13,1.135 0.894,2.029 1.935,2.029 1.191,0 1.805,-0.949 1.898,-2.029 l -3.833,0 z m 4.708,-0.669 c 0.019,0.13 0.019,0.222 0.019,0.279 0,1.749 -1.024,3.163 -2.773,3.163 -1.637,0 -2.848,-1.394 -2.848,-3.107 0,-1.862 1.341,-3.108 2.959,-3.108 1.136,0 1.862,0.447 2.439,1.116 l -0.54,0.485 c -0.466,-0.503 -1.061,-0.838 -1.86,-0.838 -1.063,0 -1.974,0.744 -2.104,2.01 l 4.708,0 z" style="fill:#0e2537;fill-opacity:1;fill-rule:nonzero;stroke:none" id="path4100" inkscape:connector-curvature="0"/>
        </g>
        <g id="g4102" transform="translate(281.8018,788.3524)">
          <path d="m 0,0 c 0,-0.256 1.086,-0.234 2.172,-0.234 4.089,0 8.157,0.362 12.011,1.277 5.133,1.215 6.518,3.025 9.392,4.643 5.857,3.301 13.268,2.726 13.268,3.28 0,0.149 -0.107,0.192 -2.172,0.724 -0.192,0.788 -1.214,1.299 -2.237,1.299 -2.405,0 -6.347,-2.79 -9.882,-2.79 -0.383,0 -0.745,0.043 -1.129,0.107 -1.426,2.662 -4.684,5.026 -8.709,5.537 -2.322,0.298 -3.982,0.575 -5.303,0.809 -4.664,0.852 -5.878,2.066 -6.411,2.066 -0.106,0 -0.148,-0.107 -0.148,-0.192 0,-0.894 1.597,-3.407 4.131,-6.24 C 6.644,8.434 9.391,5.75 9.391,4.473 9.391,3.77 7.837,2.918 4.876,1.661 1.427,0.192 0,0.213 0,0" style="fill:#e3980b;fill-opacity:1;fill-rule:nonzero;stroke:none" id="path4104" inkscape:connector-curvature="0"/>
        </g>
        <g id="g4106" transform="translate(313.8159,759.4617)">
          <path d="m 0,0 0,19.403 -4.269,0 0,-7.679 -9.71,0 0,7.679 -4.268,0 0,-19.403 4.268,0 0,7.789 9.71,0 L -4.269,0 0,0 Z m 25.252,9.702 0,0.055 c 0,5.516 -4.297,9.978 -10.284,9.978 C 8.981,19.735 4.63,15.218 4.63,9.702 l 0,-0.056 c 0,-5.515 4.296,-9.978 10.284,-9.978 5.986,0 10.338,4.517 10.338,10.034 M 20.788,9.646 c 0,-3.326 -2.382,-6.042 -5.82,-6.042 -3.436,0 -5.877,2.772 -5.877,6.098 l 0,0.055 c 0,3.327 2.385,6.043 5.823,6.043 3.435,0 5.874,-2.772 5.874,-6.098 l 0,-0.056 z m 22.952,5.821 0,3.936 -16.078,0 0,-3.936 5.905,0 0,-15.467 4.269,0 0,15.467 5.904,0 z M 62.615,0 l 0,3.798 -10.533,0 0,4.074 9.148,0 0,3.798 -9.148,0 0,3.936 10.395,0 0,3.797 -14.635,0 0,-19.403 14.773,0 z m 17.654,0 0,3.881 -8.756,0 0,15.522 -4.268,0 0,-19.403 13.024,0 z m 18.071,5.738 0,0.056 c 0,3.381 -2.217,4.795 -6.154,5.82 C 88.833,12.473 88,12.89 88,14.164 l 0,0.056 c 0,0.942 0.86,1.691 2.496,1.691 1.635,0 3.327,-0.721 5.043,-1.913 l 2.219,3.216 c -1.969,1.579 -4.379,2.466 -7.207,2.466 -3.963,0 -6.791,-2.328 -6.791,-5.848 l 0,-0.056 c 0,-3.853 2.523,-4.933 6.431,-5.931 3.244,-0.832 3.908,-1.387 3.908,-2.468 l 0,-0.054 c 0,-1.138 -1.052,-1.83 -2.799,-1.83 -2.217,0 -4.047,0.914 -5.793,2.356 L 82.984,2.827 c 2.328,-2.078 5.295,-3.104 8.233,-3.104 4.185,0 7.123,2.163 7.123,6.015" style="fill:#0e2537;fill-opacity:1;fill-rule:nonzero;stroke:none" id="path4108" inkscape:connector-curvature="0"/>
        </g>
      </g>
    </g>
  </g>
</svg>