<svg xmlns="http://www.w3.org/2000/svg" xmlns:xlink="http://www.w3.org/1999/xlink" height="800" width="1200" viewBox="-44.85 -11.353175 388.7 68.11905"><defs><linearGradient id="d"><stop offset="0" stop-color="#05aee9"/><stop offset=".0963" stop-color="#00a9e0"/><stop offset=".2039" stop-color="#07a3dc"/><stop offset=".2986" stop-color="#089dd5"/><stop offset=".4043" stop-color="#0a92cc"/><stop offset=".5" stop-color="#0f87c3"/><stop offset=".6" stop-color="#127cb8"/><stop offset=".7" stop-color="#0e70ad"/><stop offset=".8" stop-color="#0f63a3"/><stop offset=".9" stop-color="#135393"/><stop offset="1" stop-color="#184485"/></linearGradient><linearGradient id="a"><stop offset="0" stop-color="#eb2023"/><stop offset=".0963" stop-color="#e92026"/><stop offset=".2039" stop-color="#e31e27"/><stop offset=".2986" stop-color="#e01e26"/><stop offset=".4043" stop-color="#d81f27"/><stop offset=".5" stop-color="#cf2027"/><stop offset=".6" stop-color="#c62127"/><stop offset=".7" stop-color="#b92025"/><stop offset=".8" stop-color="#ae1f23"/><stop offset=".9" stop-color="#a01d22"/><stop offset="1" stop-color="#901c1c"/></linearGradient><linearGradient id="c"><stop offset="0" stop-color="#e7ebee"/><stop offset=".2491" stop-color="#dfe4e8"/><stop offset=".4983" stop-color="#cad1d7"/><stop offset=".7491" stop-color="#a8b5bd"/><stop offset="1" stop-color="#93a6ad"/></linearGradient><linearGradient id="b"><stop offset="0" stop-color="#6c221f"/><stop offset=".2491" stop-color="#7f2620"/><stop offset=".4983" stop-color="#982b24"/><stop offset=".7491" stop-color="#b53125"/><stop offset="1" stop-color="#cb3327"/></linearGradient><linearGradient y2="786.9905" x2="525.4441" y1="569.8166" x1="525.4441" gradientUnits="userSpaceOnUse" id="e" xlink:href="#a"/><linearGradient y2="566.3331" x2="652.1356" y1="643.6097" x1="531.4678" gradientUnits="userSpaceOnUse" id="f" xlink:href="#b"/><linearGradient y2="520.5168" x2="698.773" y1="622.7948" x1="521.9963" gradientUnits="userSpaceOnUse" id="g" xlink:href="#c"/><linearGradient y2="473.2369" x2="421.7387" y1="263.433" x1="421.7387" gradientUnits="userSpaceOnUse" id="h" xlink:href="#d"/><clipPath clipPathUnits="userSpaceOnUse" id="j"><path d="M63.943 200.817h32.252V221.4H63.943z"/></clipPath><clipPath clipPathUnits="userSpaceOnUse" id="i"><path d="M162.72 676.171H345.6v31.945H162.72z"/></clipPath></defs><path d="M532.0969 643.9692l60.1787 100.0001c18.6548 29.9702 49.3872 43.5715 87.6786 43.5715h154.8214L653.526 567.8981l-25.7146-14.6432-67.8571 22.1429-34.385 49.758z" fill="url(#e)" transform="translate(221.1368 -22.817) scale(.08663)"/><path d="M653.5259 567.8982l-37.838-45.8661-100.005 53.7906 10.6066 54.2957 5.8074 13.8508c-2.2743-36.7979 60.9076-79.5225 121.429-76.071z" fill="url(#f)" transform="translate(221.1368 -22.817) scale(.08663)"/><path d="M532.0969 643.9692l-54.107-89.4642c-6.5177-10.1488-8.3036-19.0292-8.3036-29.375 0-11.3794 4.8512-17.619 23.4822-27.5 21.704-10.3918 65.401-14.9107 110.4464-14.9107 73.1952 0 90.741 23.4911 98.2143 48.8393 0 0-10.3344-4.1071-34.6429-4.1071-77.1112 0-138.75 37.4313-138.75 94.1071 0 11.8933 3.6606 22.4106 3.6606 22.4106z" fill="url(#g)" transform="translate(221.1368 -22.817) scale(.08663)"/><path d="M299.6996 263.37h72.78c30.6935 0 43.2823 12.556 55.6988 24.875 14.2113 12.9189 57.3127 71.254 148.4293 185.1104h-98.6161c-40.3258 0-53.0807-6.87-68.677-30.6546z" fill="url(#h)" transform="translate(221.1368 -22.817) scale(.08663)"/><path d="M297.3822 43.3598l.457 1.6396h.0084l.4636-1.6396h.3881L299 45.4127h-.3108l-.2133-1.675h-.0068l-.4787 1.675h-.3326l-.4654-1.6682h-.005l-.2134 1.6682h-.2956l.299-2.0529zm-.9659 0v.2638h-.6048v1.789h-.299v-1.789h-.6048v-.2638z" fill="#334357"/><g clip-path="url(#i)" transform="matrix(1.67991 0 0 -1.67991 -278.8636 1183.4192)"><path d="M254.3689 693.6163h-.042l-2.136-6.038h4.319zm3.823-10.795l-1.046 2.966h-5.592l-1.048-2.966h-2.387l5.009 13.202h2.66l4.932-13.202zm20.261 13.731h2.335v-2.207h-2.335zm.026-3.675h2.282v-10.056h-2.282zm-16.85 3.676h2.336v-2.208h-2.336zm.027-3.676h2.282v-10.056h-2.282zm14.332 3.663h-2.282v-13.719h2.282zm-7.274-8.815v-4.904h-2.289v7.472c0 .718-.082 2.085-.11 2.582h1.843c.199 0 .256-.084.262-.28.004-.297.02-1.246.02-1.246h.052c.18.435.829 1.737 2.725 1.737.635 0 1.105-.205 1.182-.236 0-.433-.045-1.383-.068-1.634-.014-.165-.086-.219-.168-.219-.078 0-.114.018-.157.035-.142.06-.474.161-.935.161-1.218 0-2.357-.879-2.357-3.468m20.784-4.904v6.494c0 1.24-.566 1.996-1.628 1.996-1.404 0-2.336-1.494-2.336-3.51v-4.98h-2.283v7.387c0 .813-.074 1.998-.112 2.667h1.834c.207 0 .266-.085.268-.271.006-.215.024-1.255.024-1.255h.052c.275.473.978 1.738 3.082 1.738 2.169 0 3.381-1.483 3.381-3.148v-7.118zm6.316 6.061h4.224c.087 1.621-.764 2.529-2.048 2.529-1.344 0-2.115-.972-2.176-2.529m5.631-3.853c.127 0 .164-.111.174-.225.039-.429.076-1.399.07-1.646-.244-.078-1.471-.529-3.119-.529-3.201 0-5.127 1.656-5.127 5.221 0 3.061 1.642 5.236 4.594 5.236 2.898 0 4.276-1.938 4.276-4.344 0-.283-.031-.761-.081-1.396h-6.447c0-1.717 1.094-2.949 3.116-2.949 1.114 0 2 .399 2.352.569.07.034.111.063.192.063m5.346-2.4c2.971 0 4.393 1.215 4.393 3.021 0 1.778-1.263 2.526-2.601 2.968-.384.124-.76.25-1.111.368-.916.303-1.391.701-1.391 1.295 0 .627.572 1.066 1.76 1.066 1.056 0 1.919-.431 2.261-.596.057-.026.108-.063.199-.063.072 0 .161.045.173.223.023.337.063.948.063 1.535-.277.127-1.276.64-2.883.64-2.455 0-3.964-1.277-3.964-2.962 0-1.634 1.117-2.38 2.346-2.787.283-.096.808-.268 1.115-.372 1.283-.426 1.649-.813 1.649-1.413 0-.783-.834-1.17-2.269-1.17-1.177 0-1.986.432-2.311.584-.066.029-.105.063-.196.063-.169 0-.172-.225-.174-.262-.007-.108-.061-1.15-.061-1.497.269-.116 1.435-.641 3.002-.641m-134.542 10.987h-.042l-2.137-6.038h4.316zm3.822-10.795l-1.047 2.966h-5.592l-1.047-2.966h-2.386l5.009 13.203h2.658l4.932-13.203zm37.299 13.732h2.334v-2.207h-2.334zm.027-3.676h2.28v-10.056h-2.28zm-4.9-5.152v-4.904h-2.285v7.472c0 .719-.082 2.086-.112 2.584h1.844c.199 0 .258-.086.259-.281.006-.296.024-1.247.024-1.247h.051c.181.435.828 1.737 2.725 1.737.633 0 1.107-.204 1.185-.235 0-.433-.047-1.383-.069-1.635-.015-.164-.088-.217-.169-.217-.077 0-.116.016-.158.033-.144.061-.475.162-.932.162-1.219 0-2.363-.88-2.363-3.469m-16.857-4.904v6.434c0 1.159-.49 2.058-1.673 2.058-1.332 0-2.1-1.458-2.1-3.5v-4.992h-2.281v6.454c0 1.054-.44 2.038-1.664 2.038-1.351 0-2.107-1.455-2.107-3.572v-4.92h-2.286v7.324c0 .946-.084 2.284-.111 2.732h1.827c.206 0 .274-.068.278-.281.005-.267.021-1.247.021-1.247h.052c.139.287.89 1.738 2.986 1.738 1.953 0 2.7-1.401 2.885-1.833.18.38 1.047 1.833 3.014 1.833 2.046 0 3.442-1.098 3.442-3.304v-6.962zm6.314 6.063h4.225c.087 1.618-.761 2.528-2.048 2.528-1.344 0-2.113-.973-2.177-2.528m5.634-3.855c.125 0 .163-.111.173-.225.039-.429.076-1.4.07-1.646-.243-.078-1.47-.529-3.118-.529-3.202 0-5.128 1.658-5.128 5.223 0 3.057 1.641 5.234 4.596 5.234 2.895 0 4.276-1.937 4.276-4.344 0-.283-.032-.761-.083-1.394h-6.447c0-1.719 1.095-2.951 3.114-2.951 1.115 0 2.003.399 2.354.571.07.034.11.061.193.061m28.632 2.894h-.388c-2.868 0-3.432-.997-3.432-2.01 0-.828.546-1.612 1.618-1.612 1.424 0 2.202 1.375 2.202 2.822zm.55-5.102c-.184 0-.337.061-.357.328-.022.328-.067.963-.067.963h-.031c-.135-.185-.967-1.483-3.056-1.483-2.001 0-3.149 1.542-3.149 3.235 0 2.347 2.279 3.526 5.66 3.526h.45v.369c0 1.053-.749 1.617-2.149 1.617-1.26 0-2.306-.442-2.713-.649-.027-.013-.101-.056-.169-.056-.108 0-.169.067-.175.186-.018.378-.057 1.105-.063 1.566.412.157 1.778.664 3.281.664 2.988 0 4.271-1.387 4.271-3.602v-3.921c0-1.43.133-2.366.18-2.743zm-7.889 2.208c.06 0 .145-.04.165-.216.044-.479.062-1.263.064-1.509-.456-.225-1.444-.675-2.656-.675-3.046 0-4.914 1.768-4.914 5.227 0 3.241 1.661 5.23 4.914 5.23 1.079 0 2.072-.376 2.656-.676 0-.358-.035-1.169-.064-1.51-.014-.143-.083-.212-.165-.212-.091 0-.122.024-.176.048-.735.36-1.426.534-2.048.534-1.939 0-2.737-1.269-2.737-3.414 0-1.912.638-3.411 2.737-3.411.802 0 1.533.286 1.986.504.122.057.143.08.238.08m17.845-2.208v6.494c0 1.241-.566 1.997-1.626 1.997-1.405 0-2.339-1.493-2.339-3.511v-4.98h-2.281v7.387c0 .813-.074 1.998-.11 2.669h1.831c.209 0 .269-.087.27-.273.005-.213.022-1.255.022-1.255h.05c.278.474.98 1.739 3.084 1.739 2.172 0 3.384-1.484 3.384-3.147v-7.12z" fill="#334357"/></g><g clip-path="url(#j)" transform="matrix(1.25 0 0 -1.25 -566.6078 846.226)"><path d="M104.9969 183.5232v3.2675l.2218.273v2.4545l.7239.492v.0583l.264-.1421 2.2964-1.235.106-.0574v-.9837l1.3684-.5466.1242-.05v-3.5572h.1176v-.2054h1.2508V181.8H44.6334v1.491h1.4402v1.4702h-.2255v.4081l.7882.9165 1.1393 1.3247 1.1392-1.3247.7744-.9005v-.4241h-.2022v-1.4701h.4773v2.8506h-.2416v.3928l.8075.9393 1.1456 1.3319 1.1456-1.332.809-.9407v-.3913h-.2336v-2.8403h.3827v9.6412h4.2762v-3.5802h4.128v-6.061h.4351v10.2104h3.572V183.291h.5208v6.3166h2.7535v7.7655h3.572V183.291h.744v16.007l3.5721-1.8672v-6.1675h3.809v-.7175h3.5362v-3.0594h1.242v5.2871l3.1521.7004.9067-.5115v2.9636l4.1047.9119 1.8508-1.0442v-3.609h.0494v1.2324l1.3029 1.334v1.043h.365v-1.0325l1.3018-1.3445v-1.2324h.4156v-8.8937h.6543v6.6342h.8176v1.1644h.3645v.7374l1.127 1.3766 1.1134-1.3766v-.7374h.3646v-1.1644h.7238v-6.6342h.3826v.232z" fill="#086591" fill-rule="evenodd"/></g></svg>