<?xml version="1.0" encoding="UTF-8" standalone="no"?>
<!-- Created with Inkscape (http://www.inkscape.org/) -->
<svg xmlns:svg="http://www.w3.org/2000/svg" xmlns="http://www.w3.org/2000/svg" version="1.0" width="744.09448" height="384.09448" id="svg20392">
  <defs id="defs20394">
    <clipPath id="clp1313">
<path d="M 173.79,64.47 L 209.74,64.47 L 209.74,82.163 L 173.79,82.163 L 173.79,64.47 z " id="path13770"/>

</clipPath>
    <clipPath id="clp1314">
<path d="M 173.79,64.47 L 209.74,64.47 L 209.74,82.163 L 173.79,82.163 L 173.79,64.47 z " id="path13778"/>

</clipPath>
  </defs>
  <g transform="translate(-51.71981,-373.8594)" id="layer1">
    <g transform="translate(17.71655,17.66165)" id="g20441">
      <path d="M 706.76352,615.69069 C 697.89289,611.05831 696.51306,597.96924 696.71013,566.13369 L 696.90729,517.34543 L 679.95457,517.32571 L 683.89708,508.29745 L 696.90729,508.29745 L 696.90729,485.19452 L 728.05288,473.643 L 728.05288,507.52863 L 742.443,507.54834 L 738.69755,517.5623 L 728.05288,517.54258 L 728.05288,601.97081 C 728.64426,608.77164 731.00978,612.77321 734.16375,615.69069 L 706.76352,615.69069" style="fill:#c6003d;fill-rule:nonzero;stroke:none;stroke-width:0.051;stroke-linecap:butt;stroke-linejoin:miter;stroke-miterlimit:4;stroke-dasharray:none" id="path13762"/>
      <path d="M 245.49295,693.08166 C 244.50725,690.34163 242.53604,688.5872 239.57922,688.5872 C 235.43956,688.5872 233.86257,690.71614 233.86257,693.65333 C 233.86257,700.65123 249.63252,699.36989 249.63252,711.23676 C 249.63252,717.86016 243.91596,722.63055 235.83387,722.63055 C 233.07412,722.63055 229.92006,721.96031 227.55463,720.40304 C 228.14601,718.21495 228.73739,716.04658 229.13161,713.81907 L 230.11722,713.81907 C 230.7086,717.38707 233.6655,719.51601 237.2137,719.51601 C 240.36767,719.51601 243.32458,717.70243 243.32458,714.13452 C 243.32458,705.83556 227.75169,708.85162 227.75169,696.35393 C 227.75169,690.40078 231.89136,685.47266 239.77629,685.47266 C 243.52164,685.47266 246.87277,686.87221 247.85838,687.95639 C 247.267,689.61224 246.87277,691.32723 246.28139,693.08166 L 245.49295,693.08166" style="fill:#c6003d;fill-rule:nonzero;stroke:none;stroke-width:0.051;stroke-linecap:butt;stroke-linejoin:miter;stroke-miterlimit:4;stroke-dasharray:none" id="path13764"/>
      <path d="M 399.84115,407.07415 C 402.20668,413.59896 407.72608,420.34066 403.78366,427.91023 C 402.00952,435.59809 394.71588,441.82717 387.02811,443.06908 C 378.94602,443.79838 371.45522,442.43827 365.34444,437.5693 C 361.20477,415.37311 370.27255,394.83277 387.81655,382.59139 L 399.84115,407.07415" style="fill:#c6003d;fill-rule:nonzero;stroke:none;stroke-width:0.051;stroke-linecap:butt;stroke-linejoin:miter;stroke-miterlimit:4;stroke-dasharray:none" id="path13766"/>
      <g transform="matrix(19.71242,0,0,-19.71242,-3374.102,1993.491)" style="fill:#c6003d;fill-rule:nonzero;stroke:none;stroke-width:0.051;stroke-linecap:butt;stroke-linejoin:miter;stroke-miterlimit:4;stroke-dasharray:none" clip-path="url(#clp1313)" id="g13772">
<path d="M 193.02,77.047 C 192.82,76.366 190.81,76.813 190.18,77.931 C 191.01,77.839 191.94,78.573 191.96,79.41 L 193.02,77.047" style="fill:#c6003d;fill-rule:nonzero;stroke:none" id="path13774"/>

</g>
      <g transform="matrix(19.71242,0,0,-19.71242,-3374.102,1993.491)" style="fill:#c6003d;fill-rule:nonzero;stroke:none;stroke-width:0.051;stroke-linecap:butt;stroke-linejoin:miter;stroke-miterlimit:4;stroke-dasharray:none" clip-path="url(#clp1314)" id="g13780">
<path d="M 193.85,77.135 C 193.94,77.176 194.12,77.268 194.17,77.465 L 192.01,82.163 C 191.86,82.181 191.76,82.194 191.57,82.063 L 193.85,77.135" style="fill:#c6003d;fill-rule:nonzero;stroke:none" id="path13782"/>

</g>
      <path d="M 466.272,452.86617 C 484.40739,425.36726 469.22881,380.24558 430.00114,373.91792 L 466.272,452.86617" style="fill:#c6003d;fill-rule:nonzero;stroke:none;stroke-width:0.051;stroke-linecap:butt;stroke-linejoin:miter;stroke-miterlimit:4;stroke-dasharray:none" id="path13784"/>
      <path d="M 51.71981,661.18697 L 736.52919,661.18697 L 736.52919,655.94349 L 51.71981,655.94349 L 51.71981,661.18697 z " style="fill:#c6003d;fill-rule:nonzero;stroke:none;stroke-width:0.051;stroke-linecap:butt;stroke-linejoin:miter;stroke-miterlimit:4;stroke-dasharray:none" id="path13786"/>
      <path d="M 273.2874,703.48975 C 273.2874,701.47911 271.51326,699.86269 269.54205,699.86269 C 267.57084,699.86269 265.99386,701.47911 265.99386,703.48975 C 265.99386,705.50049 267.57084,707.1169 269.54205,707.1169 C 271.51326,707.1169 273.2874,705.50049 273.2874,703.48975" style="fill:#c6003d;fill-rule:nonzero;stroke:none;stroke-width:0.051;stroke-linecap:butt;stroke-linejoin:miter;stroke-miterlimit:4;stroke-dasharray:none" id="path13788"/>
      <path d="M 462.32949,512.06252 C 468.04614,507.2527 478.09944,507.15412 484.60454,510.22923 C 487.36429,511.60915 489.92688,513.44235 491.70103,515.8473 L 479.08505,535.40204 C 477.50806,534.14041 476.3253,533.56875 474.35409,532.54371 C 468.04614,529.84311 461.54104,531.4201 457.79569,534.83038 L 457.79569,591.89779 C 457.59853,601.77374 459.37268,610.78229 464.49786,615.45419 L 435.91486,615.45419 C 429.80398,610.88086 428.42415,603.5676 427.83277,597.16098 L 427.63561,521.26822 C 427.83277,515.11791 426.25578,512.41731 423.89026,508.96769 L 453.45895,509.0859 C 455.82439,510.80089 456.02155,513.77752 457.20431,516.06418 L 462.32949,512.06252" style="fill:#c6003d;fill-rule:nonzero;stroke:none;stroke-width:0.051;stroke-linecap:butt;stroke-linejoin:miter;stroke-miterlimit:4;stroke-dasharray:none" id="path13790"/>
      <path d="M 498.40319,530.82872 C 498.20613,523.61403 499.78311,514.97999 495.05216,508.75082 L 522.45239,508.75082 C 524.4236,510.13074 525.40921,512.41731 526.00059,514.58568 C 527.57757,516.51755 527.38051,519.2773 527.97189,521.56387 L 528.36611,602.42427 C 529.35172,607.23409 531.32293,612.08334 534.87121,615.86813 L 505.49968,615.92727 C 495.8406,606.62299 498.99458,591.32613 498.20613,575.53646 L 498.40319,530.82872" style="fill:#c6003d;fill-rule:nonzero;stroke:none;stroke-width:0.051;stroke-linecap:butt;stroke-linejoin:miter;stroke-miterlimit:4;stroke-dasharray:none" id="path13792"/>
      <path d="M 541.9677,531.61726 C 544.92451,523.39716 554.18936,519.2773 560.89162,514.80255 C 571.14208,511.03748 582.57529,501.65434 594.00842,509.32249 C 603.66749,515.61071 612.1439,522.7072 618.25468,532.42542 C 619.6346,536.19049 620.42305,540.42864 621.40875,544.4303 C 621.40875,549.81179 622.59142,553.81345 622.39435,559.19493 C 622.78858,565.02979 622.78858,570.29298 622.39435,576.00964 C 622.00013,585.72786 617.46624,594.42095 609.77837,601.16264 C 598.34515,611.35395 583.95512,622.90546 568.38233,615.00072 C 554.38652,608.47591 538.02519,595.56428 539.01079,577.82312 C 538.41941,565.24657 537.82803,554.38511 539.60217,542.14364 C 540.19355,538.59544 539.9964,534.71208 541.9677,531.61726 z M 570.5507,588.80297 C 571.93052,593.84938 574.49321,600.01931 580.60399,600.70927 C 584.15228,600.82757 586.71487,597.85094 588.88324,595.32779 C 595.19118,582.75124 594.20558,569.03136 594.20558,554.72019 C 592.23437,544.09523 594.79696,529.56718 583.36374,523.04237 C 579.22416,521.56387 576.26726,524.3039 573.70467,526.82715 C 569.17078,533.56875 568.77655,541.29605 568.38233,549.87094 C 567.00241,563.59082 568.57939,574.96479 570.5507,588.80297" style="fill:#c6003d;fill-rule:nonzero;stroke:none;stroke-width:0.051;stroke-linecap:butt;stroke-linejoin:miter;stroke-miterlimit:4;stroke-dasharray:none" id="path13794"/>
      <path d="M 642.6981,615.69069 C 633.82757,611.05831 632.44765,597.96924 632.64481,566.13369 L 632.84187,517.34543 L 616.08641,517.32571 L 619.83176,508.29745 L 632.84187,508.29745 L 632.84187,485.19452 L 664.18462,473.643 L 664.18462,507.52863 L 678.37759,507.54834 L 674.63223,517.5623 L 664.18462,517.54258 L 664.18462,601.97081 C 664.776,608.77164 667.14153,612.77321 670.2955,615.69069 L 642.6981,615.69069" style="fill:#c6003d;fill-rule:nonzero;stroke:none;stroke-width:0.051;stroke-linecap:butt;stroke-linejoin:miter;stroke-miterlimit:4;stroke-dasharray:none" id="path13796"/>
      <path d="M 357.26235,521.26822 C 357.06519,515.11791 355.88243,512.41731 353.51699,508.96769 L 383.0856,509.0859 C 385.45103,510.80089 385.64819,513.77752 386.83095,516.06418 L 391.95613,512.06252 C 397.67279,507.2527 407.72608,507.15412 414.23119,510.22923 C 416.99093,511.60915 419.55352,513.44235 421.32767,515.8473 L 408.71169,535.40204 C 407.1347,534.14041 405.95203,533.56875 403.98073,532.54371 C 397.67279,529.84311 391.16768,531.4201 387.42233,534.83038 L 387.42233,591.89779 C 387.22517,601.77374 388.99932,610.78229 394.1245,615.45419 L 365.5415,615.45419 C 359.62778,610.88086 357.85373,604.08012 357.45941,597.16098 L 357.26235,521.26822" style="fill:#c6003d;fill-rule:nonzero;stroke:none;stroke-width:0.051;stroke-linecap:butt;stroke-linejoin:miter;stroke-miterlimit:4;stroke-dasharray:none" id="path13798"/>
      <path d="M 133.13216,551.2902 L 122.48739,573.44695 C 114.99668,586.51631 104.74623,602.54247 88.97628,606.52441 C 82.86549,608.65335 77.34599,606.72157 71.43227,606.30754 L 52.31119,637.5518 C 53.88818,639.08935 55.85948,640.3706 57.83069,641.11971 C 91.3418,653.93276 104.94339,640.15382 137.86312,565.42401 L 169.20587,631.99287 L 210.79907,631.99287 L 191.08661,587.06826 L 202.32276,563.84703 L 233.07412,630.96784 L 272.89318,631.22405 L 203.1112,478.09803 L 170.98001,494.04534 L 196.21188,551.19162 L 185.17288,573.64411 L 139.04588,474.13581 L 105.33761,491.36445 L 133.13216,551.2902" style="fill:#c6003d;fill-rule:nonzero;stroke:none;stroke-width:0.051;stroke-linecap:butt;stroke-linejoin:miter;stroke-miterlimit:4;stroke-dasharray:none" id="path13800"/>
      <path d="M 261.06574,578.29621 C 261.85419,567.19816 267.96507,556.78998 278.21552,551.19162 C 288.46598,544.88367 300.29342,542.38023 310.93809,536.88045 C 312.71224,535.40204 314.88061,533.56875 315.07776,531.16388 C 315.27483,528.18726 313.69784,525.9006 311.13525,524.87556 C 294.97108,521.44566 281.76372,531.49896 270.13343,541.45377 C 271.51326,534.14041 272.69602,526.13719 276.24431,519.2773 C 277.8213,517.44401 279.00406,514.92085 281.17243,513.56064 C 292.60555,507.94266 306.79852,506.34596 319.4145,507.2527 C 329.86202,507.94266 339.52119,515.37422 343.06938,524.87556 C 344.84352,529.33059 344.64637,534.377 345.04059,538.95024 L 345.23775,600.94577 C 345.23775,606.30754 347.80034,611.35395 350.95431,615.69069 L 321.38571,615.69069 C 317.83751,612.49728 316.06337,608.47591 315.07776,603.4493 C 306.79852,610.78229 289.45158,621.64384 279.20112,614.42906 C 268.55645,609.63895 258.70021,593.49449 261.06574,578.29621 z M 313.50078,556.73083 C 313.30362,552.43353 310.34681,551.98016 308.17844,551.98016 C 301.08196,553.00519 294.97108,558.93863 291.42288,565.02979 C 288.46598,570.45071 287.67753,575.02394 287.48037,579.77471 C 287.48037,584.89989 287.08615,588.70439 289.25451,592.58775 C 290.43718,595.11091 292.80271,596.25424 295.3653,596.92449 C 299.89919,597.85094 304.03877,596.58932 307.58706,594.18445 C 316.06337,589.49293 314.48638,580.10978 314.68354,571.77139 L 313.50078,556.73083" style="fill:#c6003d;fill-rule:nonzero;stroke:none;stroke-width:0.051;stroke-linecap:butt;stroke-linejoin:miter;stroke-miterlimit:4;stroke-dasharray:none" id="path13802"/>
      <path d="M 542.9533,703.48975 C 542.9533,701.47911 541.17916,699.86269 539.20795,699.86269 C 537.23674,699.86269 535.65966,701.47911 535.65966,703.48975 C 535.65966,705.50049 537.23674,707.1169 539.20795,707.1169 C 541.17916,707.1169 542.9533,705.50049 542.9533,703.48975" style="fill:#c6003d;fill-rule:nonzero;stroke:none;stroke-width:0.051;stroke-linecap:butt;stroke-linejoin:miter;stroke-miterlimit:4;stroke-dasharray:none" id="path13804"/>
      <path d="M 294.77392,686.39912 L 305.81291,686.39912 C 308.17844,686.39912 312.12086,686.30054 314.28922,687.44387 C 317.24613,689.00114 318.62596,691.32723 318.62596,694.85571 C 318.62596,699.94156 315.47199,703.15468 310.54387,704.17971 C 313.50078,709.14726 316.65475,713.91765 319.80872,718.74719 L 321.77993,721.96031 C 320.20295,721.8421 318.62596,721.70409 317.04897,721.70409 C 315.47199,721.70409 314.09216,721.8421 312.51517,721.96031 L 306.20714,711.07904 C 305.41869,709.67949 304.03877,707.29425 302.85601,705.32304 L 302.46178,705.32304 L 302.46178,721.96031 C 301.27902,721.8421 299.89919,721.70409 298.71643,721.70409 C 297.3366,721.70409 296.15384,721.8421 294.77392,721.96031 L 294.77392,686.39912 z M 302.46178,703.09553 C 307.98128,703.60805 310.74103,701.02574 310.74103,695.68369 C 310.74103,694.95429 310.54387,694.18556 310.34681,693.08166 C 309.55827,688.78436 305.61576,689.1983 302.46178,689.1983 L 302.46178,703.09553" style="fill:#c6003d;fill-rule:nonzero;stroke:none;stroke-width:0.051;stroke-linecap:butt;stroke-linejoin:miter;stroke-miterlimit:4;stroke-dasharray:none" id="path13806"/>
      <path d="M 349.37732,686.39912 C 349.18026,687.12851 348.9831,687.91696 348.9831,688.62663 C 348.9831,689.35603 349.18026,690.14447 349.37732,690.85415 C 346.02619,690.44021 342.67516,690.02618 337.35282,690.14447 L 337.35282,701.28205 L 342.67516,701.28205 C 345.04059,701.28205 347.20896,701.06517 349.18026,700.80887 C 348.9831,701.53826 348.78594,702.30708 348.78594,703.03638 C 348.78594,703.76577 348.9831,704.55431 349.18026,705.2639 C 347.20896,705.00768 345.04059,704.81053 342.67516,704.81053 L 337.35282,704.81053 L 337.35282,717.95874 C 342.67516,717.91931 346.02619,717.663 349.37732,717.24906 C 349.18026,717.95874 348.9831,718.74719 348.9831,719.47658 C 348.9831,720.18625 349.18026,720.9747 349.37732,721.70409 L 329.4678,721.70409 L 329.4678,686.39912 L 349.37732,686.39912" style="fill:#c6003d;fill-rule:nonzero;stroke:none;stroke-width:0.051;stroke-linecap:butt;stroke-linejoin:miter;stroke-miterlimit:4;stroke-dasharray:none" id="path13808"/>
      <path d="M 374.60929,693.08166 C 373.42652,690.34163 371.45522,688.5872 368.49841,688.5872 C 364.5559,688.5872 362.78175,690.71614 362.78175,693.65333 C 362.78175,700.65123 378.5517,699.36989 378.5517,711.23676 C 378.5517,717.86016 373.03221,722.63055 364.95012,722.63055 C 361.99331,722.63055 359.0364,721.96031 356.67097,720.40304 C 357.26235,718.21495 357.85373,716.04658 358.05079,713.81907 L 359.0364,713.81907 C 359.82494,717.38707 362.58469,719.51601 366.13288,719.51601 C 369.48401,719.51601 372.24376,717.70243 372.24376,714.13452 C 372.24376,705.83556 356.86803,708.85162 356.86803,696.35393 C 356.86803,690.40078 360.81054,685.47266 368.89263,685.47266 C 372.44092,685.47266 375.79196,686.87221 376.97472,687.95639 C 376.38334,689.61224 375.79196,691.32723 375.39773,693.08166 L 374.60929,693.08166" style="fill:#c6003d;fill-rule:nonzero;stroke:none;stroke-width:0.051;stroke-linecap:butt;stroke-linejoin:miter;stroke-miterlimit:4;stroke-dasharray:none" id="path13810"/>
      <path d="M 404.17789,722.63055 C 392.74467,722.63055 385.05681,715.88895 385.05681,704.12056 C 385.05681,693.81096 392.54751,685.47266 405.55772,685.47266 C 420.34206,685.47266 424.6788,695.88084 424.6788,703.9235 C 424.6788,714.03594 416.99093,722.63055 404.17789,722.63055 z M 393.73028,705.6385 C 393.73028,712.36038 396.68718,719.51601 404.57211,719.51601 C 412.45713,719.51601 416.00533,711.5325 416.00533,702.93789 C 416.00533,696.25535 412.85136,688.5872 405.16349,688.5872 C 398.06701,688.5872 393.73028,694.02784 393.73028,705.6385" style="fill:#c6003d;fill-rule:nonzero;stroke:none;stroke-width:0.051;stroke-linecap:butt;stroke-linejoin:miter;stroke-miterlimit:4;stroke-dasharray:none" id="path13812"/>
      <path d="M 433.35227,686.39912 L 444.39117,686.39912 C 446.75669,686.39912 450.50205,686.30054 452.67042,687.44387 C 455.62732,689.00114 457.20431,691.32723 457.20431,694.85571 C 457.20431,699.94156 453.85318,703.15468 449.12222,704.17971 C 452.07903,709.14726 455.23301,713.91765 458.38707,718.74719 L 460.35828,721.96031 C 458.78129,721.8421 457.20431,721.70409 455.62732,721.70409 C 454.05034,721.70409 452.47326,721.8421 450.89627,721.96031 L 444.78549,711.07904 C 443.99695,709.67949 442.61712,707.29425 441.43436,705.32304 L 441.04013,705.32304 L 441.04013,721.96031 C 439.66021,721.8421 438.47745,721.70409 437.09762,721.70409 C 435.91486,721.70409 434.53503,721.8421 433.35227,721.96031 L 433.35227,686.39912 z M 441.04013,703.09553 C 446.55954,703.60805 449.12222,701.02574 449.12222,695.68369 C 449.12222,694.95429 449.12222,694.18556 448.92506,693.08166 C 448.13652,688.78436 444.1941,689.1983 441.04013,689.1983 L 441.04013,703.09553" style="fill:#c6003d;fill-rule:nonzero;stroke:none;stroke-width:0.051;stroke-linecap:butt;stroke-linejoin:miter;stroke-miterlimit:4;stroke-dasharray:none" id="path13814"/>
      <path d="M 482.43618,721.96031 C 481.25341,721.8421 479.87359,721.70409 478.49366,721.70409 C 477.3109,721.70409 475.93107,721.8421 474.74831,721.96031 L 474.74831,690.08532 C 471.00296,690.08532 467.84899,690.44021 465.08924,690.81472 C 465.08924,690.08532 465.2864,689.35603 465.2864,688.5872 C 465.2864,687.85781 465.08924,687.12851 465.08924,686.39912 L 491.70103,686.39912 C 491.70103,687.12851 491.50387,687.85781 491.50387,688.5872 C 491.50387,689.35603 491.70103,690.08532 491.70103,690.81472 C 488.74412,690.44021 485.59015,690.08532 482.43618,690.08532 L 482.43618,721.96031" style="fill:#c6003d;fill-rule:nonzero;stroke:none;stroke-width:0.051;stroke-linecap:butt;stroke-linejoin:miter;stroke-miterlimit:4;stroke-dasharray:none" id="path13816"/>
      <path d="M 515.94729,693.08166 C 514.96169,690.34163 512.99038,688.5872 510.03357,688.5872 C 505.89399,688.5872 504.31691,690.71614 504.31691,693.65333 C 504.31691,700.65123 520.08687,699.36989 520.08687,711.23676 C 520.08687,717.86016 514.3703,722.63055 506.28822,722.63055 C 503.52847,722.63055 500.3745,721.96031 498.00897,720.40304 C 498.60035,718.21495 499.19173,716.04658 499.58596,713.81907 L 500.57156,713.81907 C 501.16294,717.38707 504.11985,719.51601 507.66804,719.51601 C 510.82202,719.51601 513.58176,717.70243 513.58176,714.13452 C 513.58176,705.83556 498.20613,708.85162 498.20613,696.35393 C 498.20613,690.40078 502.34571,685.47266 510.23073,685.47266 C 513.97608,685.47266 517.32712,686.87221 518.31282,687.95639 C 517.72143,689.61224 517.32712,691.32723 516.73574,693.08166 L 515.94729,693.08166" style="fill:#c6003d;fill-rule:nonzero;stroke:none;stroke-width:0.051;stroke-linecap:butt;stroke-linejoin:miter;stroke-miterlimit:4;stroke-dasharray:none" id="path13818"/>
      <path d="M 579.61839,693.08166 C 578.43563,690.34163 576.46442,688.5872 573.50751,688.5872 C 569.56509,688.5872 567.79095,690.71614 567.79095,693.65333 C 567.79095,700.65123 583.5609,699.36989 583.5609,711.23676 C 583.5609,717.86016 578.0414,722.63055 569.95931,722.63055 C 567.00241,722.63055 564.04559,721.96031 561.68007,720.40304 C 562.27145,718.21495 562.66567,716.04658 563.05999,713.81907 L 564.04559,713.81907 C 564.83404,717.38707 567.59379,719.51601 571.14208,719.51601 C 574.49321,719.51601 577.25286,717.70243 577.25286,714.13452 C 577.25286,705.83556 561.87723,708.85162 561.87723,696.35393 C 561.87723,690.40078 566.0168,685.47266 573.70467,685.47266 C 577.45002,685.47266 580.80115,686.87221 581.98391,687.95639 C 581.39253,689.61224 580.80115,691.32723 580.40693,693.08166 L 579.61839,693.08166" style="fill:#c6003d;fill-rule:nonzero;stroke:none;stroke-width:0.051;stroke-linecap:butt;stroke-linejoin:miter;stroke-miterlimit:4;stroke-dasharray:none" id="path13820"/>
      <path d="M 592.82575,686.39912 C 594.20558,686.51741 595.38834,686.67514 596.76817,686.67514 C 598.14809,686.67514 599.33085,686.51741 600.71068,686.39912 L 600.71068,701.12432 C 600.71068,703.98265 600.51352,708.2208 601.1049,710.9214 C 601.49922,713.46428 601.89344,715.06098 603.66749,716.87456 C 605.44164,718.43183 607.41294,719.10207 609.77837,719.10207 C 614.50933,719.10207 617.07201,717.34764 618.84606,712.83347 C 619.83176,710.5468 619.83176,704.6528 619.83176,702.10992 L 619.83176,686.39912 C 620.42305,686.51741 621.21159,686.55685 621.80297,686.55685 C 622.59142,686.55685 623.37996,686.51741 623.97134,686.39912 L 623.97134,704.84996 C 623.77418,710.76368 623.97134,716.14516 618.45184,719.89052 C 615.69209,721.90116 612.1439,722.63055 608.59561,722.63055 C 602.48482,722.63055 595.58541,720.65934 593.81135,713.91765 C 593.21997,711.90701 592.82575,709.62035 592.82575,707.55056 L 592.82575,686.39912" style="fill:#c6003d;fill-rule:nonzero;stroke:none;stroke-width:0.051;stroke-linecap:butt;stroke-linejoin:miter;stroke-miterlimit:4;stroke-dasharray:none" id="path13822"/>
      <path d="M 636.193,686.39912 C 637.57292,686.51741 638.95275,686.67514 640.13551,686.67514 C 641.51534,686.67514 642.6981,686.51741 644.07803,686.39912 L 644.07803,721.96031 C 642.6981,721.8421 641.51534,721.70409 640.13551,721.70409 C 638.95275,721.70409 637.57292,721.8421 636.193,721.96031 L 636.193,686.39912" style="fill:#c6003d;fill-rule:nonzero;stroke:none;stroke-width:0.051;stroke-linecap:butt;stroke-linejoin:miter;stroke-miterlimit:4;stroke-dasharray:none" id="path13824"/>
      <path d="M 670.2955,721.96031 C 668.91567,721.8421 667.53575,721.70409 666.35299,721.70409 C 664.97316,721.70409 663.7904,721.8421 662.41057,721.96031 L 662.41057,690.08532 C 658.86228,690.08532 655.51124,690.44021 652.75149,690.81472 C 652.94856,690.08532 653.14572,689.35603 653.14572,688.5872 C 653.14572,687.85781 652.94856,687.12851 652.75149,686.39912 L 679.56035,686.39912 C 679.36319,687.12851 679.16613,687.85781 679.16613,688.5872 C 679.16613,689.35603 679.36319,690.08532 679.56035,690.81472 C 676.40638,690.44021 673.44947,690.08532 670.2955,690.08532 L 670.2955,721.96031" style="fill:#c6003d;fill-rule:nonzero;stroke:none;stroke-width:0.051;stroke-linecap:butt;stroke-linejoin:miter;stroke-miterlimit:4;stroke-dasharray:none" id="path13826"/>
      <path d="M 707.3549,686.39912 C 707.15774,687.12851 707.15774,687.91696 707.15774,688.62663 C 707.15774,689.35603 707.15774,690.14447 707.3549,690.85415 C 704.20084,690.44021 700.65264,690.02618 695.3303,690.14447 L 695.3303,701.28205 L 700.65264,701.28205 C 703.01817,701.28205 705.18653,701.06517 707.15774,700.80887 C 706.96058,701.53826 706.96058,702.30708 706.96058,703.03638 C 706.96058,703.76577 706.96058,704.55431 707.15774,705.2639 C 705.18653,705.00768 703.01817,704.81053 700.65264,704.81053 L 695.3303,704.81053 L 695.3303,717.95874 C 700.65264,717.91931 704.20084,717.663 707.3549,717.24906 C 707.15774,717.95874 707.15774,718.74719 707.15774,719.47658 C 707.15774,720.18625 707.15774,720.9747 707.3549,721.70409 L 687.64244,721.70409 L 687.64244,686.39912 L 707.3549,686.39912" style="fill:#c6003d;fill-rule:nonzero;stroke:none;stroke-width:0.051;stroke-linecap:butt;stroke-linejoin:miter;stroke-miterlimit:4;stroke-dasharray:none" id="path13828"/>
      <path d="M 732.58677,693.08166 C 731.60116,690.34163 729.62986,688.5872 726.67305,688.5872 C 722.53338,688.5872 720.95639,690.71614 720.95639,693.65333 C 720.95639,700.65123 736.72635,699.36989 736.72635,711.23676 C 736.72635,717.86016 731.00978,722.63055 722.92769,722.63055 C 720.16795,722.63055 717.01397,721.96031 714.64845,720.40304 C 715.23983,718.21495 715.83121,716.04658 716.02828,713.81907 L 717.01397,713.81907 C 717.80242,717.38707 720.56217,719.51601 724.30752,719.51601 C 727.46149,719.51601 730.22124,717.70243 730.22124,714.13452 C 730.22124,705.83556 714.84561,708.85162 714.84561,696.35393 C 714.84561,690.40078 718.98518,685.47266 726.87011,685.47266 C 730.61547,685.47266 733.9666,686.87221 734.9522,687.95639 C 734.36091,689.61224 733.9666,691.32723 733.37522,693.08166 L 732.58677,693.08166" style="fill:#c6003d;fill-rule:nonzero;stroke:none;stroke-width:0.051;stroke-linecap:butt;stroke-linejoin:miter;stroke-miterlimit:4;stroke-dasharray:none" id="path13830"/>
      <path d="M 52.70551,686.39912 C 54.08534,686.51741 55.2681,686.67514 56.64793,686.67514 C 57.83069,686.67514 59.21061,686.51741 60.59044,686.39912 L 60.59044,700.45407 C 63.15303,700.55265 65.91278,700.71038 68.47537,700.71038 C 71.03805,700.71038 73.7978,700.55265 76.36039,700.45407 L 76.36039,686.39912 C 77.74022,686.51741 78.92298,686.67514 80.30281,686.67514 C 81.48557,686.67514 82.86549,686.51741 84.24532,686.39912 L 84.24532,721.96031 C 82.86549,721.8421 81.48557,721.70409 80.30281,721.70409 C 78.92298,721.70409 77.74022,721.8421 76.36039,721.96031 L 76.36039,704.59365 C 73.7978,704.49516 71.03805,704.33744 68.47537,704.33744 C 65.91278,704.33744 63.15303,704.49516 60.59044,704.59365 L 60.59044,721.96031 C 59.21061,721.8421 57.83069,721.70409 56.64793,721.70409 C 55.2681,721.70409 54.08534,721.8421 52.70551,721.96031 L 52.70551,686.39912" style="fill:#c6003d;fill-rule:nonzero;stroke:none;stroke-width:0.051;stroke-linecap:butt;stroke-linejoin:miter;stroke-miterlimit:4;stroke-dasharray:none" id="path13832"/>
      <path d="M 112.63125,722.63055 C 101.19803,722.63055 93.31301,715.88895 93.31301,704.12056 C 93.31301,693.81096 101.00088,685.47266 113.81392,685.47266 C 128.59827,685.47266 132.935,695.88084 132.935,703.9235 C 132.935,714.03594 125.24714,722.63055 112.63125,722.63055 z M 101.98648,705.6385 C 101.98648,712.36038 105.14045,719.51601 112.82832,719.51601 C 120.71334,719.51601 124.45869,711.5325 124.45869,702.93789 C 124.45869,696.25535 121.30472,688.5872 113.4197,688.5872 C 106.32322,688.5872 101.98648,694.02784 101.98648,705.6385" style="fill:#c6003d;fill-rule:nonzero;stroke:none;stroke-width:0.051;stroke-linecap:butt;stroke-linejoin:miter;stroke-miterlimit:4;stroke-dasharray:none" id="path13834"/>
      <path d="M 152.25315,721.96031 C 151.07039,721.8421 149.69056,721.70409 148.5078,721.70409 C 147.12797,721.70409 145.94521,721.8421 144.56529,721.96031 L 144.56529,690.08532 C 140.81993,690.08532 137.66596,690.44021 134.90621,690.81472 C 135.10337,690.08532 135.10337,689.35603 135.10337,688.5872 C 135.10337,687.85781 135.10337,687.12851 134.90621,686.39912 L 161.518,686.39912 C 161.518,687.12851 161.32084,687.85781 161.32084,688.5872 C 161.32084,689.35603 161.518,690.08532 161.518,690.81472 C 158.56119,690.44021 155.40712,690.08532 152.25315,690.08532 L 152.25315,721.96031" style="fill:#c6003d;fill-rule:nonzero;stroke:none;stroke-width:0.051;stroke-linecap:butt;stroke-linejoin:miter;stroke-miterlimit:4;stroke-dasharray:none" id="path13836"/>
      <path d="M 189.1154,686.39912 C 189.1154,687.12851 188.91824,687.91696 188.91824,688.62663 C 188.91824,689.35603 189.1154,690.14447 189.1154,690.85415 C 185.96142,690.44021 182.41314,690.02618 177.0908,690.14447 L 177.0908,701.28205 L 182.61029,701.28205 C 184.97582,701.28205 186.94703,701.06517 188.91824,700.80887 C 188.72117,701.53826 188.72117,702.30708 188.72117,703.03638 C 188.72117,703.76577 188.72117,704.55431 188.91824,705.2639 C 186.94703,705.00768 184.97582,704.81053 182.61029,704.81053 L 177.0908,704.81053 L 177.0908,717.95874 C 182.41314,717.91931 185.96142,717.663 189.1154,717.24906 C 189.1154,717.95874 188.91824,718.74719 188.91824,719.47658 C 188.91824,720.18625 189.1154,720.9747 189.1154,721.70409 L 169.40302,721.70409 L 169.40302,686.39912 L 189.1154,686.39912" style="fill:#c6003d;fill-rule:nonzero;stroke:none;stroke-width:0.051;stroke-linecap:butt;stroke-linejoin:miter;stroke-miterlimit:4;stroke-dasharray:none" id="path13838"/>
      <path d="M 206.85656,717.95874 C 211.39045,717.95874 215.1358,717.60386 218.684,717.24906 C 218.48693,717.95874 218.28978,718.74719 218.28978,719.47658 C 218.28978,720.18625 218.48693,720.9747 218.684,721.70409 L 198.97163,721.70409 L 198.97163,686.39912 C 200.35146,686.51741 201.53422,686.67514 202.91405,686.67514 C 204.29397,686.67514 205.47673,686.51741 206.85656,686.39912 L 206.85656,717.95874" style="fill:#c6003d;fill-rule:nonzero;stroke:none;stroke-width:0.051;stroke-linecap:butt;stroke-linejoin:miter;stroke-miterlimit:4;stroke-dasharray:none" id="path13840"/>
      <path d="M 737.90911,606.40612 C 737.90911,600.05874 743.0343,595.38693 749.1452,595.38693 C 755.256,595.38693 760.3812,600.05874 760.3812,606.40612 C 760.3812,612.79293 755.256,617.46483 749.1452,617.46483 C 743.0343,617.46483 737.90911,612.79293 737.90911,606.40612 z M 749.1452,615.63154 C 754.2704,615.63154 758.2129,611.72846 758.2129,606.40612 C 758.2129,601.18236 754.2704,597.22013 749.1452,597.22013 C 744.2171,597.22013 740.0775,601.18236 740.0775,606.40612 C 740.0775,611.72846 744.2171,615.63154 749.1452,615.63154 z M 746.7797,612.79293 L 745.0056,612.79293 L 745.0056,600.05874 L 749.7365,600.05874 C 752.6935,600.05874 754.2704,601.18236 754.2704,603.6858 C 754.2704,605.97246 752.8905,606.95807 750.9193,607.19466 L 754.6647,612.79293 L 752.4963,612.79293 L 749.1452,607.27352 L 746.7797,607.27352 L 746.7797,612.79293 z M 749.1452,605.63739 C 750.7222,605.63739 752.2991,605.51909 752.2991,603.5676 C 752.2991,601.99052 750.9193,601.69488 749.5394,601.69488 L 746.7797,601.69488 L 746.7797,605.63739 L 749.1452,605.63739" style="fill:#c6003d;fill-rule:nonzero;stroke:none;stroke-width:0.051;stroke-linecap:butt;stroke-linejoin:miter;stroke-miterlimit:4;stroke-dasharray:none" id="path13842"/>
    </g>
  </g>
</svg>