<?xml version="1.0"?>
<svg xmlns="http://www.w3.org/2000/svg" xmlns:xlink="http://www.w3.org/1999/xlink" xmlns:svgjs="http://svgjs.com/svgjs" version="1.1" width="512" height="512" x="0" y="0" viewBox="0 0 512 512" style="enable-background:new 0 0 512 512" xml:space="preserve"><g><path xmlns="http://www.w3.org/2000/svg" d="m42.874 117.87a6 6 0 0 0 -6 6v6.5a6 6 0 0 0 12 0v-6.5a6 6 0 0 0 -6-6z" fill="#ffffff" data-original="#000000" style=""/><path xmlns="http://www.w3.org/2000/svg" d="m42.874 145.475a6 6 0 0 0 -6 6v61.3a6 6 0 0 0 12 0v-61.3a6 6 0 0 0 -6-6z" fill="#ffffff" data-original="#000000" style=""/><path xmlns="http://www.w3.org/2000/svg" d="m147.133 213.943a6 6 0 0 0 12 0v-7.057a24.92 24.92 0 0 0 21.578-24.64v-15.111a6 6 0 0 0 -12 0v15.111a12.89 12.89 0 0 1 -9.578 12.418v-22.073a6 6 0 0 0 -12 0v22.073a12.891 12.891 0 0 1 -9.577-12.418v-14.529a6 6 0 1 0 -12 0v14.529a24.92 24.92 0 0 0 21.577 24.64z" fill="#ffffff" data-original="#000000" style=""/><path xmlns="http://www.w3.org/2000/svg" d="m374.775 347.218h-33.715a17.8 17.8 0 0 0 -17.79 17.76v24.968a11.075 11.075 0 0 0 11.069 11.054h47.161a11.075 11.075 0 0 0 11.069-11.056v-24.966a17.8 17.8 0 0 0 -17.794-17.76zm5.791 41.782h-45.3v-11.75h16.648v1.231a6 6 0 0 0 12 0v-1.231h16.648zm0-23.752h-45.3v-.272a5.781 5.781 0 0 1 5.79-5.76h33.715a5.782 5.782 0 0 1 5.791 5.76z" fill="#ffffff" data-original="#000000" style=""/><path xmlns="http://www.w3.org/2000/svg" d="m153.133 253.205a6 6 0 0 0 6-6v-10.505a6 6 0 0 0 -12 0v10.5a6 6 0 0 0 6 6.005z" fill="#ffffff" data-original="#000000" style=""/><path xmlns="http://www.w3.org/2000/svg" d="m279.521 216.18a6 6 0 0 0 -8.366-1.418l-18.465 13.113a6 6 0 1 0 6.947 9.783l18.463-13.113a6 6 0 0 0 1.421-8.365z" fill="#ffffff" data-original="#000000" style=""/><path xmlns="http://www.w3.org/2000/svg" d="m192.685 306.119-2.214.1a30.147 30.147 0 0 1 -16.353-3.906 6 6 0 0 0 -5.945 10.423 42.147 42.147 0 0 0 20.855 5.517q.992 0 1.994-.047l2.217-.1a6 6 0 0 0 -.554-11.986z" fill="#ffffff" data-original="#000000" style=""/><path xmlns="http://www.w3.org/2000/svg" d="m242.525 242.508a6 6 0 0 0 -8.358 1.464 41.116 41.116 0 0 0 -7.511 23.742c0 .4.007.794.018 1.191a6 6 0 0 0 6 5.831h.172a6 6 0 0 0 5.829-6.167c-.009-.3-.013-.591-.014-.87a29.156 29.156 0 0 1 5.333-16.831 6 6 0 0 0 -1.469-8.36z" fill="#ffffff" data-original="#000000" style=""/><path xmlns="http://www.w3.org/2000/svg" d="m286.652 343.148a5.991 5.991 0 0 0 7.194-4.5l5.084-22.07a6 6 0 0 0 -11.694-2.693l-5.084 22.07a6 6 0 0 0 4.5 7.193z" fill="#ffffff" data-original="#000000" style=""/><path xmlns="http://www.w3.org/2000/svg" d="m333.875 271.061a6.045 6.045 0 0 0 3.356-1.014 41.206 41.206 0 0 0 16.061-20.347 6 6 0 0 0 -11.281-4.09 29.288 29.288 0 0 1 -11.431 14.448l-.095.063a5.987 5.987 0 0 0 3.39 10.939z" fill="#ffffff" data-original="#000000" style=""/><path xmlns="http://www.w3.org/2000/svg" d="m147.133 276.705a40.942 40.942 0 0 0 3.56 16.782 6 6 0 0 0 10.959-4.886 29.037 29.037 0 0 1 -2.519-11.9v-7.879a6 6 0 0 0 -12 0z" fill="#ffffff" data-original="#000000" style=""/><path xmlns="http://www.w3.org/2000/svg" d="m232.4 285.456a6 6 0 0 0 -7.947 2.973 29.986 29.986 0 0 1 -12.567 13.624 6 6 0 1 0 5.863 10.47 42.079 42.079 0 0 0 17.624-19.12 6 6 0 0 0 -2.973-7.947z" fill="#ffffff" data-original="#000000" style=""/><path xmlns="http://www.w3.org/2000/svg" d="m311.651 272.664-3.832 2.552a41.766 41.766 0 0 0 -13.919 15.527 6 6 0 1 0 10.659 5.514 29.74 29.74 0 0 1 9.911-11.057l3.832-2.552a6 6 0 1 0 -6.651-9.988z" fill="#ffffff" data-original="#000000" style=""/><path xmlns="http://www.w3.org/2000/svg" d="m331.905 212a29.187 29.187 0 0 1 10.639 15.116 6 6 0 0 0 11.5-3.433 41.094 41.094 0 0 0 -14.963-21.3 6 6 0 0 0 -7.176 9.617z" fill="#ffffff" data-original="#000000" style=""/><path xmlns="http://www.w3.org/2000/svg" d="m293.1 212.541a5.971 5.971 0 0 0 3.435-1.085 30.03 30.03 0 0 1 17.307-5.443h.462.1a6 6 0 0 0 .093-12 41.829 41.829 0 0 0 -24.839 7.606 6 6 0 0 0 3.446 10.917z" fill="#ffffff" data-original="#000000" style=""/><path xmlns="http://www.w3.org/2000/svg" d="m310.909 372.481a19.988 19.988 0 0 1 -7.886-1.593 5.975 5.975 0 0 0 -5.238.262 5.966 5.966 0 0 0 -1.505-5.014 19.651 19.651 0 0 1 -4.552-8.156 6 6 0 0 0 -11.577 3.165 31.724 31.724 0 0 0 7.336 13.157 5.938 5.938 0 0 0 7.262 1.165 6 6 0 0 0 3.566 6.458 31.9 31.9 0 0 0 12.594 2.556 6 6 0 0 0 0-12z" fill="#ffffff" data-original="#000000" style=""/><path xmlns="http://www.w3.org/2000/svg" d="m159.613 375.519 3.528-4.538a6 6 0 1 0 -9.475-7.365l-2.732 3.515-3.2-3.1a6 6 0 1 0 -8.34 8.629l4.136 4-3.363 4.325a6 6 0 0 0 9.475 7.366l2.568-3.3 3 2.9a6 6 0 0 0 8.34-8.629z" fill="#ffffff" data-original="#000000" style=""/><path xmlns="http://www.w3.org/2000/svg" d="m388.655 160.009 3.527-4.537a6 6 0 0 0 -9.475-7.366l-2.732 3.515-3.2-3.1a6 6 0 1 0 -8.34 8.629l4.135 4-3.362 4.325a6 6 0 0 0 9.475 7.365l2.567-3.3 3 2.9a6 6 0 0 0 8.34-8.628z" fill="#ffffff" data-original="#000000" style=""/><path xmlns="http://www.w3.org/2000/svg" d="m229.65 361.9a6 6 0 0 0 -6 6v22a6 6 0 0 0 12 0v-22a6 6 0 0 0 -6-6z" fill="#ffffff" data-original="#000000" style=""/><path xmlns="http://www.w3.org/2000/svg" d="m229.65 331.843a6 6 0 0 0 -6 6v8.057a6 6 0 0 0 12 0v-8.053a6 6 0 0 0 -6-6.004z" fill="#ffffff" data-original="#000000" style=""/><path xmlns="http://www.w3.org/2000/svg" d="m338.465 191.607a6 6 0 0 0 6-6v-15.34a6 6 0 0 0 -12 0v15.34a6 6 0 0 0 6 6z" fill="#ffffff" data-original="#000000" style=""/><path xmlns="http://www.w3.org/2000/svg" d="m351.918 289.248a6 6 0 0 0 6 6h22a6 6 0 0 0 0-12h-22a6 6 0 0 0 -6 6z" fill="#ffffff" data-original="#000000" style=""/><path xmlns="http://www.w3.org/2000/svg" d="m493.829 124.745 4.65-7.741a17.74 17.74 0 0 0 2.406-10.873 45.672 45.672 0 0 0 -91.088 4.657v9.479h-91.731a6 6 0 0 0 -4.085 1.605l-5.857 5.446-5.762-6.969a6 6 0 0 0 -4.379-2.172l-85.517-3.492a6 6 0 0 0 -6.245 6v9.62l-21.472-14.584a6 6 0 0 0 -3.371-1.036h-79.053v-3.894a45.637 45.637 0 0 0 -45.663-45.513c-7.327 0-10.812 6.311-13.357 10.918a30.084 30.084 0 0 1 -2.771 4.428c-.87-.245-2.22-.8-3.1-1.169-3.773-1.559-10.087-4.173-14.539.7a45.3 45.3 0 0 0 -11.895 30.808l1.18 297.425a38.441 38.441 0 0 0 38.459 38.334h64.961a28.97 28.97 0 0 0 18.526-6.709l17.749-14.813 16.925 14.542a28.928 28.928 0 0 0 18.846 6.98h126.45a5.993 5.993 0 0 0 2.717-.651l17.507-8.894 12.116 8.464a6 6 0 0 0 3.436 1.081h14.437a6 6 0 0 0 3.636-1.228l10.173-7.752 10.172 7.752a6 6 0 0 0 3.637 1.228h69.559a38.435 38.435 0 0 0 38.459-38.311l1.055-266.761a17.5 17.5 0 0 0 -2.474-9.035zm-470.829-13.828a33.323 33.323 0 0 1 7.549-21.277c.728.257 1.618.625 2.3.905 3.728 1.54 8.369 3.459 12.8 1.122 3.985-2.1 6.207-6.12 8.167-9.669.85-1.54 2.246-4.066 3.083-4.719a33.623 33.623 0 0 1 33.432 33.508v107.822a5.525 5.525 0 0 1 -1.2 3.433l-6.875 8.614a6 6 0 0 0 .553 8.089l5.811 5.533a5.536 5.536 0 0 1 1.716 3.992v142.568a58.182 58.182 0 0 0 -23.436-9.328c-18.348-2.945-33.354 3.664-42.792 9.807zm438.483 323.8h-67.534l-12.2-9.3a6 6 0 0 0 -7.273 0l-12.2 9.3h-10.518l-13.516-9.443a6 6 0 0 0 -6.154-.43l-19.432 9.873h-77.069a6.082 6.082 0 0 0 .063-.826v-22a6 6 0 0 0 -12 0v22a5.925 5.925 0 0 0 .064.826h-36.071a16.929 16.929 0 0 1 -11.025-4.08l-20.774-17.856a6 6 0 0 0 -7.756-.057l-21.653 18.076a16.944 16.944 0 0 1 -10.838 3.923h-64.958a26.432 26.432 0 0 1 -26.459-26.359l-.009-2.089c5.351-4.649 20.889-16.11 40.833-12.918a47.722 47.722 0 0 1 25.208 12.735 7.171 7.171 0 0 0 12.113-5.2v-105.644h16a6 6 0 0 0 0-12h-16v-34.978a17.593 17.593 0 0 0 -5.44-12.682l-1.831-1.743 3.444-4.316a17.565 17.565 0 0 0 3.827-10.92v-91.928h77.208l29.317 19.912a6 6 0 0 0 9.371-4.964v-14.7l76.6 3.127 8.109 9.808a6 6 0 0 0 8.71.572l8.787-8.171h12.04v16a6 6 0 0 0 12 0v-16h65.333v150.983h-7.879a6 6 0 0 0 0 12h7.879v33.943a6 6 0 0 0 1.231 3.642l8.93 11.693-8.894 11.422a5.993 5.993 0 0 0 -1.267 3.687v41.265a7.171 7.171 0 0 0 12.109 5.2 47.732 47.732 0 0 1 25.212-12.738c13.752-2.2 27.806 3.773 40.727 17.3a26.445 26.445 0 0 1 -26.365 24.06zm26.517-40.173c-11.2-8.939-23.343-13.621-35.417-13.621a46.342 46.342 0 0 0 -7.362.587 58.182 58.182 0 0 0 -23.421 9.328v-29.138l10.472-13.446a6 6 0 0 0 .035-7.328l-10.507-13.764v-216.374a33.672 33.672 0 0 1 67.15-3.436 5.588 5.588 0 0 1 -.756 3.474l-6.5 10.82a6 6 0 0 0 -.008 6.164l6.539 10.957a5.5 5.5 0 0 1 .775 2.833z" fill="#ffffff" data-original="#000000" style=""/></g></svg>
